<?xml version="1.0" encoding="iso-8859-1"?>
<!-- Generator: Adobe Illustrator 18.0.0, SVG Export Plug-In . SVG Version: 6.00 Build 0)  -->
<!DOCTYPE svg PUBLIC "-//W3C//DTD SVG 1.1//EN" "http://www.w3.org/Graphics/SVG/1.1/DTD/svg11.dtd">
<svg version="1.1" id="Capa_1" xmlns="http://www.w3.org/2000/svg" xmlns:xlink="http://www.w3.org/1999/xlink" x="0px" y="0px"
	 viewBox="0 0 323.538 323.538" style="enable-background:new 0 0 323.538 323.538;" xml:space="preserve">
<g>
	<path d="M225.811,94.083c-5.233,0-10.135,1.431-14.347,3.914V28.347C211.464,12.716,198.747,0,183.116,0
		c-14.11,0-28.347,10.775-28.347,34.847v63.149c-4.212-2.483-9.114-3.914-14.347-3.914c-12.856,0-23.734,8.606-27.193,20.357
		c-4.458-2.924-9.783-4.632-15.501-4.632c-15.631,0-28.347,12.716-28.347,28.347v31.634c0,0.469,0.013,0.935,0.035,1.399
		c-0.023,0.231-0.035,0.465-0.035,0.703v34.566c0,28.926,13.366,54.785,34.242,71.739v38.342c0,3.866,3.134,7,7,7h102.294
		c3.866,0,7-3.134,7-7v-38.342c20.876-16.953,34.242-42.813,34.242-71.739v-84.027C254.158,106.8,241.442,94.083,225.811,94.083z
		 M225.811,108.083c7.911,0,14.347,6.437,14.347,14.348v60.332l-29.712-22.71c0.642-1.058,1.018-2.294,1.018-3.622v-34
		C211.464,114.52,217.9,108.083,225.811,108.083z M168.769,34.847c0-12.859,5.498-20.847,14.347-20.847
		c7.911,0,14.348,6.436,14.348,14.347V150.13l-12.041-9.203c-4.978-3.805-10.824-5.697-16.654-5.805v-12.691V34.847z
		 M126.074,122.431c0-7.911,6.437-14.348,14.348-14.348s14.347,6.437,14.347,14.348v15.25v0.82
		c-3.443,1.848-6.559,4.432-9.082,7.733c-4.598,6.016-6.579,13.462-5.576,20.968c0.769,5.758,3.229,11.018,7.046,15.233
		c-2.056,1.095-4.361,1.702-6.736,1.702c-7.911,0-14.348-6.436-14.348-14.347v-31.634V122.431z M83.38,138.156
		c0-7.911,6.436-14.347,14.347-14.347s14.347,6.436,14.347,14.347v31.634c0,7.911-6.436,14.347-14.347,14.347
		S83.38,177.701,83.38,169.79V138.156z M205.916,309.538h-88.294v-21.94c13.124,7.169,28.168,11.249,44.147,11.249
		s31.023-4.079,44.147-11.249V309.538z M161.769,284.847c-43.224,0-78.389-35.165-78.389-78.389v-12.234
		c4.212,2.483,9.114,3.914,14.347,3.914c8.508,0,16.147-3.773,21.347-9.727c5.201,5.954,12.839,9.727,21.348,9.727
		c6.611,0,12.979-2.322,18.021-6.473l27.929,21.347c1.269,0.97,2.763,1.439,4.246,1.439c2.106,0,4.189-0.947,5.567-2.75
		c2.348-3.072,1.761-7.465-1.311-9.813l-35.378-27.041c-3.044-2.327-5.001-5.701-5.508-9.499c-0.507-3.799,0.495-7.567,2.822-10.612
		c4.804-6.286,13.826-7.49,20.111-2.687l63.025,48.172c0.069,0.053,0.141,0.096,0.211,0.145v6.09
		C240.158,249.682,204.993,284.847,161.769,284.847z"/>
</g>
<g>
</g>
<g>
</g>
<g>
</g>
<g>
</g>
<g>
</g>
<g>
</g>
<g>
</g>
<g>
</g>
<g>
</g>
<g>
</g>
<g>
</g>
<g>
</g>
<g>
</g>
<g>
</g>
<g>
</g>
</svg>
