<?xml version="1.0" encoding="iso-8859-1"?>
<!-- Generator: Adobe Illustrator 19.0.0, SVG Export Plug-In . SVG Version: 6.00 Build 0)  -->
<svg version="1.1" id="Layer_1" xmlns="http://www.w3.org/2000/svg" xmlns:xlink="http://www.w3.org/1999/xlink" x="0px" y="0px"
	 viewBox="0 0 511.999 511.999" style="enable-background:new 0 0 511.999 511.999;" xml:space="preserve">
<path style="fill:#5EAC24;" d="M227.352,226.261c5.824,2.526,12.742,0.335,15.993-5.294l92.81-160.754l72.676-28.13
	c6.523-2.525,9.764-9.859,7.239-16.382c-2.524-6.524-9.859-9.765-16.382-7.239L322.85,38.205c-2.695,1.043-4.952,2.976-6.396,5.478
	L221.41,208.304c-3.497,6.058-1.421,13.802,4.635,17.299C226.473,225.85,226.911,226.07,227.352,226.261z"/>
<path style="fill:#4E901E;" d="M305.298,63.004l-83.888,145.3c-3.497,6.058-1.421,13.802,4.635,17.299
	c0.428,0.247,0.865,0.467,1.307,0.659c5.824,2.526,12.742,0.335,15.993-5.294L326.07,77.68
	C319.578,72.242,312.631,67.329,305.298,63.004z"/>
<path style="fill:#C2DFF6;" d="M119.574,206.89l28.472,282.864c0.84,8.303,8.325,14.648,17.281,14.648h123.618
	c8.956,0,16.441-6.345,17.281-14.648l28.303-282.019L119.574,206.89z"/>
<path style="fill:#96C8EF;" d="M148.047,489.753c0.84,8.303,8.325,14.648,17.281,14.648h48.762c-8.956,0-16.441-6.344-17.281-14.648
	L168.355,207.08l-48.782-0.191L148.047,489.753z"/>
<path style="fill:#B39A7C;" d="M138.993,201.558l27.73,271.574c0,0,1.34,11.008,14.315,11.008h92.196
	c13.178,0,14.317-11.019,14.317-11.019l27.73-271.561L138.993,201.558L138.993,201.558z"/>
<g>
	<path style="fill:#A78966;" d="M217.196,473.131l-27.73-271.574h-50.473l27.73,271.574c0,0,1.34,11.008,14.315,11.008h50.473
		C218.536,484.138,217.196,473.131,217.196,473.131z"/>
	<circle style="fill:#A78966;" cx="230.176" cy="294.734" r="12.08"/>
	<circle style="fill:#A78966;" cx="290.134" cy="246.609" r="12.08"/>
	<circle style="fill:#A78966;" cx="265.971" cy="374.397" r="12.08"/>
	<circle style="fill:#A78966;" cx="242.253" cy="446.665" r="12.08"/>
	<circle style="fill:#A78966;" cx="260.155" cy="297.185" r="5.819"/>
	<circle style="fill:#A78966;" cx="224.361" cy="261.077" r="5.818"/>
	<circle style="fill:#A78966;" cx="260.155" cy="417.922" r="5.819"/>
	<circle style="fill:#A78966;" cx="277.612" cy="338.532" r="5.819"/>
	<circle style="fill:#A78966;" cx="248.078" cy="327.478" r="5.819"/>
	<circle style="fill:#A78966;" cx="232.871" cy="367.295" r="5.819"/>
	<circle style="fill:#A78966;" cx="248.078" cy="240.348" r="5.818"/>
	<circle style="fill:#A78966;" cx="235.992" cy="400.465" r="5.819"/>
	<circle style="fill:#A78966;" cx="290.134" cy="282.657" r="5.819"/>
</g>
<path style="fill:#C2DFF6;" d="M227.137,70.064c-68.444,0-123.928,55.485-123.928,123.928h247.856
	C351.065,125.548,295.58,70.064,227.137,70.064z"/>
<path style="fill:#96C8EF;" d="M103.208,193.992h62.997c0-57.559,39.242-105.947,92.429-119.883
	c-10.059-2.636-20.613-4.044-31.499-4.044C158.693,70.064,103.208,125.548,103.208,193.992z"/>
<path style="fill:#FFFFFF;" d="M332.833,195.871c2.935-5.791,4.599-12.336,4.599-19.272c0-23.588-19.122-42.71-42.71-42.71
	c-6.735,0-13.103,1.564-18.77,4.34c-7.677-19.456-26.632-33.23-48.815-33.23s-41.14,13.774-48.815,33.23
	c-5.666-2.777-12.034-4.34-18.77-4.34c-23.588,0-42.711,19.122-42.711,42.71c0,6.937,1.665,13.481,4.599,19.272L332.833,195.871
	L332.833,195.871z"/>
<g>
	<path style="opacity:0.8;fill:#D9CCBC;enable-background:new    ;" d="M186.752,152.125c6.735,0,13.103,1.564,18.77,4.34
		c7.677-19.456,26.632-33.23,48.815-33.23c4.894,0,9.631,0.673,14.125,1.927c-9.601-12.27-24.535-20.164-41.325-20.164
		c-22.184,0-41.14,13.774-48.815,33.23c-5.665-2.777-12.034-4.34-18.77-4.34c-23.588,0-42.711,19.122-42.711,42.71
		c0,6.937,1.665,13.481,4.599,19.272h22.632c-0.008-0.345-0.031-0.688-0.031-1.035C144.041,171.247,163.163,152.125,186.752,152.125
		z"/>
	<circle style="fill:#D9CCBC;" cx="256.042" cy="158.395" r="7.964"/>
	<circle style="fill:#D9CCBC;" cx="285.484" cy="165.953" r="4.65"/>
</g>
<path style="fill:#96C8EF;" d="M343.115,217.651H111.158c-8.852,0-16.094-7.242-16.094-16.094l0,0
	c0-8.852,7.242-16.094,16.094-16.094h231.958c8.852,0,16.094,7.242,16.094,16.094l0,0
	C359.209,210.409,351.966,217.651,343.115,217.651z"/>
<path style="fill:#78B9EB;" d="M152.243,201.558L152.243,201.558c0-8.852,7.242-16.094,16.094-16.094h-57.179
	c-8.852,0-16.094,7.242-16.094,16.094l0,0c0,8.852,7.242,16.094,16.094,16.094h57.179
	C159.485,217.651,152.243,210.409,152.243,201.558z"/>
<path d="M135.975,369.829c4.176-0.419,7.22-4.146,6.799-8.321l-2.648-26.306c-0.42-4.175-4.146-7.231-8.321-6.799
	c-4.176,0.419-7.22,4.146-6.799,8.321l2.648,26.306c0.394,3.917,3.697,6.839,7.552,6.839
	C135.46,369.868,135.718,369.855,135.975,369.829z"/>
<path d="M423.157,12.962c-1.952-5.049-5.755-9.034-10.706-11.223c-4.95-2.187-10.459-2.315-15.504-0.362l-76.839,29.741
	c-4.297,1.663-7.932,4.776-10.236,8.766l-21.695,37.579c-18.657-9.788-39.525-14.998-61.04-14.998
	c-16.236,0-32.088,2.925-47.117,8.694c-3.918,1.504-5.875,5.899-4.371,9.816c1.505,3.918,5.9,5.873,9.816,4.371
	c13.284-5.099,27.305-7.685,41.672-7.685c19.13,0,37.306,4.728,53.365,13.093l-12.863,22.279
	c-10.807-9.883-25.097-15.634-40.504-15.634c-22.264,0-42.2,12.003-52.656,31.141c-4.801-1.497-9.798-2.252-14.929-2.252
	c-14.428,0-27.448,6.114-36.63,15.877c6.67-13.396,15.958-25.503,27.545-35.665c3.155-2.767,3.469-7.568,0.702-10.723
	c-2.768-3.156-7.57-3.469-10.723-0.702c-25.906,22.722-41.66,54.047-44.405,88.254c-5.236,4.349-8.575,10.906-8.575,18.227
	c0,13.064,10.628,23.692,23.692,23.692h2.627l8.101,80.482c0.394,3.917,3.697,6.839,7.551,6.839c0.254,0,0.512-0.013,0.77-0.04
	c4.176-0.419,7.22-4.146,6.799-8.321l-7.948-78.961h196.076l-26.469,263.738c-0.444,4.382-4.713,7.814-9.721,7.814H165.328
	c-5.008,0-9.277-3.433-9.72-7.81l-9.762-96.979c-0.42-4.175-4.153-7.234-8.321-6.799c-4.176,0.419-7.22,4.146-6.799,8.321
	l9.762,96.983c1.239,12.247,11.919,21.482,24.841,21.482h123.618c12.924,0,23.602-9.235,24.841-21.488l26.622-265.262h2.706
	c13.065,0,23.692-10.628,23.692-23.692c0-7.322-3.34-13.878-8.575-18.227c-2.474-30.816-15.649-59.534-37.304-81.544l20.47-35.453
	l70.178-27.163c5.047-1.954,9.032-5.757,11.22-10.706C424.982,23.513,425.11,18.006,423.157,12.962z M293.503,98.633
	c2.795,1.952,5.499,4.027,8.111,6.212l-12.562,21.758c-3.153,0.352-6.245,0.998-9.259,1.938c-0.568-1.04-1.17-2.056-1.794-3.054
	L293.503,98.633z M159.552,141.486c5.407,0,10.598,1.201,15.424,3.566c1.905,0.932,4.112,1.029,6.09,0.262
	c1.978-0.766,3.545-2.323,4.323-4.296c6.811-17.266,23.198-28.422,41.748-28.422c18.549,0,34.935,11.156,41.748,28.422
	c0.778,1.973,2.345,3.53,4.323,4.296c1.978,0.768,4.185,0.672,6.09-0.262c4.827-2.366,10.017-3.566,15.424-3.566
	c19.167,0,34.575,14.94,35.091,36.379H124.442C125.094,156.943,141.046,141.486,159.552,141.486z M351.61,201.558
	c0,4.684-3.81,8.495-8.495,8.495H111.158c-4.685,0-8.495-3.811-8.495-8.495c0-4.684,3.81-8.495,8.495-8.495h231.958
	C347.799,193.062,351.61,196.874,351.61,201.558z M331.072,141.873c-6.671-6.98-15.319-12.043-25.041-14.286l6.89-11.935
	C320.1,123.486,326.228,132.299,331.072,141.873z M408.894,22.32c-0.547,1.238-1.543,2.188-2.805,2.678l-72.676,28.13
	c-1.617,0.625-2.972,1.786-3.838,3.287l-20.177,34.947c-2.661-2.136-5.395-4.156-8.194-6.068l21.829-37.811
	c0.575-0.997,1.484-1.776,2.559-2.191l76.841-29.742c1.261-0.488,2.637-0.455,3.874,0.09c1.237,0.547,2.187,1.543,2.677,2.807
	C409.472,19.707,409.44,21.083,408.894,22.32z"/>
<g>
</g>
<g>
</g>
<g>
</g>
<g>
</g>
<g>
</g>
<g>
</g>
<g>
</g>
<g>
</g>
<g>
</g>
<g>
</g>
<g>
</g>
<g>
</g>
<g>
</g>
<g>
</g>
<g>
</g>
</svg>
