<?xml version="1.0" encoding="iso-8859-1"?>
<!-- Generator: Adobe Illustrator 19.0.0, SVG Export Plug-In . SVG Version: 6.00 Build 0)  -->
<svg version="1.1" id="Capa_1" xmlns="http://www.w3.org/2000/svg" xmlns:xlink="http://www.w3.org/1999/xlink" x="0px" y="0px"
	 viewBox="0 0 512 512" style="enable-background:new 0 0 512 512;" xml:space="preserve">
<path style="fill:#A3D6EB;" d="M126.639,225.928c0-71.444,57.917-129.361,129.361-129.361s129.361,57.917,129.361,129.361H126.639z"
	/>
<path style="fill:#E8757D;" d="M248.98,246.484l45.397-194.301c2.173-9.297,10.358-15.791,19.906-15.791h60.908
	c3.456,0,6.257-2.801,6.257-6.257V13.757c0-3.456-2.801-6.257-6.257-6.257h-60.908c-23.042,0-42.798,15.671-48.04,38.109
	l-45.397,194.302L248.98,246.484z"/>
<path style="opacity:0.1;enable-background:new    ;" d="M266.243,45.609C271.485,23.171,291.241,7.5,314.283,7.5v28.892
	c-9.548,0-17.734,6.493-19.906,15.791l-2.588,11.077h-29.67L266.243,45.609z"/>
<path style="fill:#F7E6C5;" d="M359.903,148.86c-12.081,5.381-26.374,4.028-37.32-4.107l0,0c-13.176-9.792-31.212-9.792-44.389,0
	l0,0c-13.176,9.792-31.212,9.792-44.388,0l0,0c-13.176-9.792-31.212-9.792-44.388,0l0,0c-10.946,8.135-25.239,9.488-37.32,4.107
	c-15.993,21.526-25.458,48.191-25.458,77.068h258.722C385.361,197.051,375.896,170.386,359.903,148.86z"/>
<path id="SVGCleanerId_0" style="fill:#F7E6C5;" d="M385.361,260.769H126.639l38.057,226.318
	c1.69,10.052,10.393,17.413,20.585,17.413h141.438c10.193,0,18.895-7.361,20.585-17.413L385.361,260.769z"/>
<g>
	<path id="SVGCleanerId_0_1_" style="fill:#F7E6C5;" d="M385.361,260.769H126.639l38.057,226.318
		c1.69,10.052,10.393,17.413,20.585,17.413h141.438c10.193,0,18.895-7.361,20.585-17.413L385.361,260.769z"/>
</g>
<path style="fill:#FDB876;" d="M322.583,431.066c-13.176-9.792-31.212-9.792-44.389,0c-13.176,9.792-31.212,9.792-44.388,0
	s-31.212-9.792-44.388,0c-9.72,7.224-22.081,9.1-33.189,5.666l8.467,50.355c1.69,10.052,10.393,17.413,20.585,17.413h141.438
	c10.193,0,18.895-7.361,20.585-17.413l8.468-50.355C344.664,440.167,332.303,438.29,322.583,431.066z"/>
<path style="opacity:0.1;enable-background:new    ;" d="M126.639,260.769l4.606,27.393H346.58l-33.45,198.925
	c-1.69,10.052-10.393,17.413-20.586,17.413h34.174c10.193,0,18.895-7.361,20.585-17.413l38.057-226.318L126.639,260.769
	L126.639,260.769z"/>
<path style="fill:#A3D6EB;" d="M401.194,225.928H110.805c-3.821,0-6.919,3.098-6.919,6.919v21.003c0,3.821,3.098,6.919,6.919,6.919
	h290.389c3.821,0,6.919-3.098,6.919-6.919v-21.003C408.114,229.026,405.016,225.928,401.194,225.928z"/>
<path style="opacity:0.1;enable-background:new    ;" d="M401.194,225.928H366.04c3.821,0,6.919,3.098,6.919,6.919v21.003
	c0,3.821-3.098,6.919-6.919,6.919h35.154c3.821,0,6.919-3.098,6.919-6.919v-21.003C408.114,229.026,405.016,225.928,401.194,225.928
	z"/>
<g>
	<path style="fill:#93827E;" d="M211.725,190.603c-1.92,0-3.839-0.732-5.304-2.197l-10.479-10.48
		c-2.929-2.929-2.929-7.678,0.001-10.607c2.928-2.93,7.677-2.929,10.606,0l10.48,10.48c2.929,2.929,2.929,7.678-0.001,10.607
		C215.564,189.87,213.644,190.603,211.725,190.603z"/>
	<path style="fill:#93827E;" d="M290.667,209.56c-1.92,0-3.839-0.732-5.304-2.197c-2.929-2.929-2.929-7.678,0.001-10.607
		l10.48-10.479c2.928-2.928,7.677-2.928,10.607,0c2.929,2.929,2.929,7.678-0.001,10.607l-10.48,10.48
		C294.506,208.827,292.586,209.56,290.667,209.56z"/>
	<path style="fill:#93827E;" d="M253.855,187.564c-3.065,0-5.94-1.891-7.049-4.937c-1.417-3.892,0.59-8.196,4.482-9.613
		l12.082-4.398c3.892-1.418,8.196,0.59,9.613,4.482c1.417,3.893-0.59,8.196-4.482,9.613l-12.082,4.397
		C255.572,187.418,254.706,187.564,253.855,187.564z"/>
	<path style="fill:#93827E;" d="M346.199,196.862c-1.061,0-2.14-0.227-3.165-0.705l-11.652-5.434
		c-3.754-1.751-5.378-6.213-3.627-9.967c1.752-3.754,6.214-5.376,9.967-3.628l11.652,5.434c3.754,1.751,5.378,6.213,3.627,9.967
		C351.728,195.259,349.023,196.862,346.199,196.862z"/>
	<path style="fill:#93827E;" d="M169.671,208.595c-3.064,0-5.94-1.891-7.049-4.937c-1.417-3.892,0.591-8.196,4.482-9.613
		l12.082-4.397c3.896-1.419,8.196,0.591,9.613,4.483s-0.591,8.196-4.482,9.613l-12.082,4.397
		C171.389,208.449,170.521,208.595,169.671,208.595z"/>
</g>
<path style="opacity:0.1;enable-background:new    ;" d="M256,96.567c-3.834,0-7.627,0.177-11.376,0.504
	c66.115,5.762,117.985,61.248,117.985,128.858h22.752C385.361,154.484,327.444,96.567,256,96.567z"/>
<g style="opacity:0.5;">
	<ellipse style="fill:#F9B0B6;" cx="314.36" cy="360.91" rx="26.02" ry="15.591"/>
	<ellipse style="fill:#F9B0B6;" cx="197.64" cy="360.91" rx="26.02" ry="15.591"/>
</g>
<path d="M401.194,218.428h-8.547c-0.474-8.745-1.766-17.411-3.879-25.85c-1.007-4.018-5.085-6.459-9.098-5.453
	c-4.018,1.006-6.459,5.08-5.453,9.098c1.815,7.25,2.959,14.691,3.416,22.205H134.376c1.363-22.336,8.762-43.069,20.595-60.574
	c13.256,3.779,27.692,1.263,38.92-7.081c10.6-7.877,24.842-7.877,35.441,0c7.976,5.927,17.321,8.891,26.668,8.891
	s18.692-2.964,26.668-8.891c10.598-7.877,24.84-7.878,35.441,0c11.243,8.356,25.703,10.867,38.971,7.068
	c2.567,3.816,4.949,7.795,7.106,11.943c1.913,3.676,6.44,5.104,10.115,3.193c3.675-1.911,5.105-6.439,3.193-10.114
	c-17.912-34.443-48.93-59.001-85.173-68.92l9.358-40.054c1.376-5.887,6.559-9.998,12.604-9.998h60.908
	c7.586,0,13.757-6.171,13.757-13.757V13.757C388.948,6.171,382.777,0,375.191,0h-60.908c-26.546,0-49.304,18.053-55.345,43.902
	l-10.603,45.383c-41.487,2.302-78.102,23.163-101.66,54.402c-0.43,0.451-0.812,0.957-1.126,1.522
	c-15.21,20.756-24.721,45.935-26.202,73.218h-8.541c-7.95,0-14.419,6.469-14.419,14.419v21.002c0,7.951,6.469,14.419,14.419,14.419
	h9.488l37.005,220.061C159.605,502.045,171.374,512,185.281,512h141.438c13.907,0,25.676-9.955,27.982-23.669l37.005-220.061h9.488
	c7.95,0,14.419-6.469,14.419-14.419v-21.002C415.613,224.897,409.145,218.428,401.194,218.428z M346.701,144.502
	c-6.926,0.452-13.915-1.51-19.644-5.768c-12.987-9.65-29.606-11.442-43.942-5.38l5.793-24.796
	C311.197,114.774,331.228,127.229,346.701,144.502z M273.546,47.315C277.991,28.289,294.743,15,314.283,15h59.665v13.892h-59.665
	c-13.051,0-24.239,8.876-27.21,21.584l-9.419,40.314c-4.582-0.727-9.225-1.226-13.918-1.488L273.546,47.315z M260.27,104.141
	c4.712,0.162,9.37,0.609,13.962,1.297l-8.794,37.639c-4.701,1.592-9.688,1.957-14.524,1.107L260.27,104.141z M244.76,104.59
	l-7.764,33.229c-15.804-10.927-36.525-10.627-52.053,0.914c-5.698,4.234-12.642,6.196-19.53,5.774
	C185.382,122.314,213.366,107.475,244.76,104.59z M349.207,430.546c-7.764,1.165-15.786-0.77-22.15-5.5
	c-15.952-11.854-37.386-11.853-53.336,0.001c-10.6,7.877-24.842,7.877-35.441,0c-11.48-8.532-26.479-11.057-40.124-6.754
	c-3.95,1.246-6.143,5.459-4.896,9.409c1.245,3.95,5.458,6.14,9.408,4.896c9.067-2.861,19.035-1.183,26.665,4.488
	c7.976,5.927,17.321,8.891,26.668,8.891s18.692-2.964,26.668-8.891c10.599-7.876,24.843-7.877,35.441,0
	c8.272,6.148,18.4,9.156,28.527,8.743l-6.729,40.014c-1.087,6.464-6.634,11.157-13.189,11.157H185.281
	c-6.556,0-12.103-4.692-13.189-11.157l-6.724-39.987c0.626,0.026,1.253,0.043,1.88,0.043c3.729,0,7.462-0.466,11.11-1.401
	c4.012-1.028,6.432-5.115,5.403-9.127c-1.027-4.012-5.109-6.432-9.128-5.403c-3.882,0.996-7.906,1.182-11.839,0.586L135.505,268.27
	h240.989L349.207,430.546z M400.613,253.27H111.387v-19.841h289.227L400.613,253.27L400.613,253.27z M203.648,340.386
	c4.142,0,7.5-3.358,7.5-7.5v-8.69c0-4.142-3.358-7.5-7.5-7.5c-4.143,0-7.5,3.358-7.5,7.5v8.69
	C196.148,337.028,199.505,340.386,203.648,340.386z M256,347.059c7.457,0,14.549-3.23,19.457-8.86
	c2.721-3.122,2.396-7.86-0.727-10.581c-3.122-2.722-7.86-2.397-10.582,0.726c-2.058,2.361-5.028,3.716-8.148,3.716
	c-3.12,0-6.091-1.355-8.148-3.716c-2.723-3.123-7.46-3.448-10.582-0.726c-3.123,2.721-3.447,7.459-0.727,10.581
	C241.451,343.83,248.543,347.059,256,347.059z M308.352,340.386c4.143,0,7.5-3.358,7.5-7.5v-8.69c0-4.142-3.357-7.5-7.5-7.5
	s-7.5,3.358-7.5,7.5v8.69C300.852,337.028,304.209,340.386,308.352,340.386z"/>
<g>
</g>
<g>
</g>
<g>
</g>
<g>
</g>
<g>
</g>
<g>
</g>
<g>
</g>
<g>
</g>
<g>
</g>
<g>
</g>
<g>
</g>
<g>
</g>
<g>
</g>
<g>
</g>
<g>
</g>
</svg>
