<svg height="496pt" viewBox="0 -56 496 496" width="496pt" xmlns="http://www.w3.org/2000/svg"><path d="m290.113281 152.246094c-.847656-2.34375-2.351562-4.417969-4.328125-5.976563l-86.625-68.289062c-3.945312-3.113281-9.222656-4.015625-13.96875-2.398438-4.742187 1.613281-8.28125 5.535157-9.351562 10.351563l-23.527344 105.855468c-.535156 2.414063-.375 4.945313.480469 7.289063 2.511719 6.925781 10.253906 10.597656 17.296875 8.199219l111.820312-38.144532c7.042969-2.390624 10.714844-9.953124 8.203125-16.886718zm0 0" fill="#fcd770"/><path d="m175.480469 205.445312 80.375-27.417968-67.238281-44.832032zm0 0" fill="#ffc729"/><path d="m173.023438 155.675781 70.335937-42.847656-44.199219-34.847656c-3.945312-3.113281-9.222656-4.015625-13.96875-2.398438-4.742187 1.613281-8.28125 5.535157-9.351562 10.351563l-16.433594 73.949218c4.808594-.285156 9.496094-1.695312 13.617188-4.207031zm0 0" fill="#ffc729"/><path d="m185.585938 90.566406c-1.554688-1.945312-3.640626-3.425781-6.019532-4.273437l-103.941406-36.914063c-4.738281-1.679687-10.023438-.847656-14 2.210938-3.976562 3.054687-6.074219 7.894531-5.535156 12.800781l11.652344 107.804687c.265624 2.464844 1.234374 4.800782 2.792968 6.753907 4.601563 5.757812 13.113282 6.75 19.007813 2.222656l93.695312-71.984375c5.890625-4.527344 6.945313-12.871094 2.347657-18.621094zm0 0" fill="#fcd770"/><path d="m197.574219 124.917969c-4.597657-2.296875-9.757813-3.511719-14.902344-3.511719-3.59375 0-7.144531.574219-10.542969 1.710938l-4.914062 1.640624-14.902344 67.046876c-.535156 2.414062-.375 4.945312.480469 7.289062 2.511719 6.925781 10.253906 10.597656 17.296875 8.199219l40.0625-13.664063 5.304687-29.175781c.367188-1.976563.542969-3.984375.542969-5.992187v-3.726563c0-12.699219-7.054688-24.121094-18.425781-29.816406zm0 0" fill="#ffc729"/><path d="m185.585938 90.566406c-1.554688-1.953125-3.640626-3.425781-6.019532-4.273437l-51.550781-18.304688-.015625 62.761719c0 5.527344 1.566406 10.917969 4.542969 15.597656.257812.402344.5625.761719.832031 1.144532l49.847656-38.304688c5.90625-4.527344 6.960938-12.871094 2.363282-18.621094zm0 0" fill="#ffc729"/><path d="m269.953125 62.269531c-1.335937-2.105469-3.25-3.800781-5.519531-4.898437l-99.371094-47.878906c-4.519531-2.183594-9.878906-1.917969-14.160156.6875-4.277344 2.609374-6.886719 7.191406-6.886719 12.136718l-.015625 108.433594c0 2.480469.710938 4.902344 2.046875 7.007812 3.953125 6.222657 12.304687 8.125 18.664063 4.253907l100.90625-61.472657c6.34375-3.863281 8.285156-12.046874 4.335937-18.269531zm0 0" fill="#fcd770"/><path d="m48 344.019531-40-80v-16h320v96zm0 0" fill="#cf9e76"/><path d="m424 344.019531h-80c-35.34375 0-64-28.65625-64-64h208c0 35.34375-28.65625 64-64 64zm0 0" fill="#e6e9ed"/><path d="m48 344.019531h280v32h-280zm0 0" fill="#cf9e76"/><path d="m184 248.019531 15.71875-86.460937c.183594-1.027344.28125-2.058594.28125-3.097656v-3.726563c0-6.570313-3.710938-12.570313-9.574219-15.503906-4.113281-2.058594-8.875-2.394531-13.234375-.945313l-65.191406 21.734375 32 88zm0 0" fill="#fcd770"/><path d="m176 234.652344c0-5.464844-1.519531-10.816406-4.433594-15.519532l-40.710937-65.390624-18.855469 6.277343 32 88h28.632812c2.078126-4.03125 3.367188-8.527343 3.367188-13.367187zm0 0" fill="#ffc729"/><path d="m328 328.019531h112v48h-112zm0 0" fill="#e6e9ed"/><path d="m281.910156 169.140625c7.042969-2.398437 10.714844-9.96875 8.203125-16.894531-.847656-2.34375-2.351562-4.417969-4.328125-5.976563l-27.503906-21.6875-34.28125 54.855469v9.457031zm0 0" fill="#ffc729"/><path d="m352 184.019531-51.257812-58.574219c-3.015626-3.449218-7.367188-5.425781-11.941407-5.425781-5.472656 0-10.5625 2.816407-13.464843 7.464844l-35.335938 56.535156-40 64h200zm0 0" fill="#fcd770"/><path d="m113.816406 126.355469c-5.59375-8.976563-15.242187-14.335938-25.816406-14.335938-10.28125 0-19.648438 5.089844-25.296875 13.617188l5.039063 46.574219c.265624 2.464843 1.234374 4.800781 2.792968 6.753906 4.601563 5.761718 13.113282 6.75 19.007813 2.222656l39.503906-30.351562zm0 0" fill="#ffc729"/><path d="m16 234.652344c0 7.382812 5.984375 13.367187 13.367188 13.367187h117.265624c7.382813 0 13.367188-5.984375 13.367188-13.367187 0-2.496094-.695312-4.945313-2.015625-7.0625l-57.753906-92.777344c-2.628907-4.222656-7.253907-6.792969-12.230469-6.792969s-9.601562 2.570313-12.222656 6.792969l-57.761719 92.777344c-1.320313 2.117187-2.015625 4.566406-2.015625 7.0625zm0 0" fill="#fcd770"/><path d="m278.375 240.269531c6.210938-6.199219 9.625-14.449219 9.625-23.234375 0-11.015625-5.480469-21.230468-14.632812-27.328125l-26.0625-17.375-47.304688 75.6875h70.625zm0 0" fill="#ffc729"/><path d="m248 248.019531 19.0625-19.0625c3.160156-3.160156 4.9375-7.449219 4.9375-11.921875 0-5.628906-2.816406-10.894531-7.503906-14.023437l-64.496094-42.992188-16 88zm0 0" fill="#fcd770"/><g fill="#ffc729"><path d="m388 232.019531h-236v16h248zm0 0"/><path d="m160 234.652344c0-.894532-.191406-1.757813-.367188-2.632813h-143.265624c-.175782.875-.367188 1.738281-.367188 2.632813 0 7.382812 5.984375 13.367187 13.367188 13.367187h117.265624c7.382813 0 13.367188-5.984375 13.367188-13.367187zm0 0"/><path d="m184 248.019531h16.265625l14.230469-78.335937-14.496094-9.664063zm0 0"/></g><path d="m48 344.019531h280v16h-280zm0 0" fill="#b27946"/><path d="m328 344.019531h112v16h-112zm0 0" fill="#ccd1d9"/><path d="m368 280.019531h-48c-13.257812 0-24-10.742187-24-24 0-13.253906 10.742188-24 24-24h128c13.257812 0 24 10.746094 24 24 0 13.257813-10.742188 24-24 24zm0 0" fill="#ff826e"/><path d="m320 232.019531.023438-6.871093c.054687-15.039063 9.703124-28.367188 23.976562-33.128907 14.320312-4.773437 23.984375-18.191406 24-33.285156 0-3.929687 0-6.714844 0-6.714844l35.433594 14.175781c26.917968 10.769532 44.566406 36.832032 44.566406 65.824219zm0 0" fill="#ff826e"/><path d="m321.367188 216.019531c-.808594 2.9375-1.328126 5.976563-1.34375 9.128907l-.023438 6.871093h128c0-5.488281-.824219-10.808593-2.023438-16zm0 0" fill="#fc6e51"/><path d="m470.527344 264.019531h-173.054688c3.304688 9.304688 12.09375 16 22.527344 16h128c10.433594 0 19.222656-6.695312 22.527344-16zm0 0" fill="#fc6e51"/><path d="m475.550781 272.019531c2.753907-4.726562 4.449219-10.144531 4.449219-16 0-14.992187-10.398438-27.511719-24.328125-30.96875-2.566406-29.542969-21.3125-55.101562-49.265625-66.285156l-46.40625-18.5625v18.511719c0 5.984375-1.976562 11.59375-5.367188 16.152344l-47.863281-54.703126c-4.539062-5.167968-11.089843-8.144531-17.96875-8.144531-8.226562 0-15.730469 4.152344-20.136719 11.082031l-24.871093-19.898437 25.992187-15.832031c4.941406-3.015625 8.375-7.75 9.671875-13.335938 1.285157-5.535156.3125-11.238281-2.753906-16.054687-2.136719-3.367188-5.175781-6.0625-8.800781-7.808594l-99.367188-47.886719c-7.015625-3.382812-15.160156-2.992187-21.800781 1.0625-6.703125 4.097656-10.710937 11.175782-10.710937 18.960938l-.007813 38.617187-59.398437-19.808593c-2.234376-.726563-4.539063-1.097657-6.847657-1.097657-12 0-21.769531 9.769531-21.769531 21.769531v1.609376c0 .636718.023438 1.285156.089844 1.972656l7.839844 86.1875-44.707032 71.804687c-2.109375 3.394531-3.222656 7.296875-3.222656 11.289063 0 1.863281.320312 3.640625.769531 5.367187h-8.769531v25.890625l40 80v38.109375h408v-36.199219c27.921875-9.910156 48-36.519531 48-67.800781v-8zm-99.847656-108.304687 24.753906 9.90625c21.503907 8.589844 36.09375 27.894531 38.941407 50.398437h-39.398438v16h48c8.824219 0 16 7.175781 16 16s-7.175781 16-16 16h-128c-8.824219 0-16-7.175781-16-16s7.175781-16 16-16h48v-16h-39.878906c.519531-11.136719 7.75-20.855469 18.40625-24.414062 16.015625-5.335938 27.265625-19.410157 29.175781-35.890625zm-80.984375-33.007813 46.945312 53.648438c-.0625.023437-.128906.066406-.191406.082031-17.542968 5.839844-29.375 22.191406-29.441406 40.6875v.023438c-8.351562 2.160156-15.328125 7.59375-19.574219 14.871093h-25.136719l5.40625-5.40625c4.6875-4.703125 7.28125-10.945312 7.28125-17.578125 0-8.328125-4.136718-16.054687-11.0625-20.671875l-19.210937-12.804687 32.394531-51.832032c2.648438-4.25 9.296875-4.792968 12.589844-1.019531zm-129.941406 92.648438-37.378906-60.039063 52.328124-17.441406c2.351563-.78125 4.898438-.605469 7.121094.503906 3.175782 1.601563 5.152344 4.800782 5.152344 8.355469v3.726563c0 .550781-.046875 1.113281-.152344 1.671874l-14.527344 79.886719h-10.089843c.457031-1.726562.769531-3.503906.769531-5.367187 0-3.992188-1.113281-7.894532-3.222656-11.296875zm40.910156-49.925781 54.367188 36.246093c2.472656 1.648438 3.945312 4.402344 3.945312 7.359375 0 2.371094-.921875 4.59375-2.59375 6.265625l-16.71875 16.71875h-51.101562zm54.417969-36.679688-23.707031 37.925781-28.398438-18.933593v-1.007813c0-9.175781-4.878906-17.425781-12.785156-21.9375l34.03125-20.726563zm-108.082031-114.441406c0-2.160156 1.144531-4.144532 3.039062-5.296875 1.082031-.65625 2.320312-.992188 3.5625-.992188 1.015625 0 2.039062.226563 2.976562.671875l99.359376 47.890625c.925781.453125 1.703124 1.132813 2.238281 1.976563.738281 1.167968.976562 2.527344.664062 3.847656-.320312 1.367188-1.175781 2.542969-2.414062 3.292969l-100.90625 61.480469c-2.648438 1.609374-6.128907.839843-7.75-1.71875-.519531-.816407-.792969-1.753907-.792969-2.710938zm-88.023438 39.480468c0-3.800781 4.046875-6.609374 7.59375-5.480468l64.421875 21.480468-.015625 52.960938c0 4.015625 1.144531 7.925781 3.296875 11.300781.078125.128907.207031.21875.289063.347657l-20.875 6.957031-11.6875-18.78125c-4.128907-6.609375-11.230469-10.554688-19.023438-10.554688-7.246094 0-13.808594 3.519531-18.023438 9.335938l-5.976562-65.957031zm-40 172.863282c0-1.007813.28125-1.992188.816406-2.839844l57.75-92.769531c1.175782-1.886719 3.210938-3.023438 5.433594-3.023438s4.257812 1.136719 5.433594 3.015625l57.75 92.769532c.535156.855468.816406 1.839843.816406 2.847656 0 2.960937-2.40625 5.367187-5.367188 5.367187h-117.265624c-2.960938 0-5.367188-2.40625-5.367188-5.367187zm-8 21.367187h272c0 5.855469 1.695312 11.273438 4.449219 16h-20.449219v8c0 22.609375 10.496094 42.792969 26.847656 56h-245.902344l-36.945312-73.886719zm40 96h264v16h-264zm376 16h-96v-16.472656c2.632812.296875 5.296875.472656 8 .472656h80c2.703125 0 5.367188-.175781 8-.472656zm-8-32h-80c-28.167969 0-51.535156-20.894531-55.433594-48h190.867188c-3.898438 27.105469-27.265625 48-55.433594 48zm0 0"/><path d="m104 208.019531h16v16h-16zm0 0"/><path d="m168 40.019531h16v16h-16zm0 0"/><path d="m200 72.019531h16v16h-16zm0 0"/><path d="m224 136.019531h16v16h-16zm0 0"/><path d="m80 80.019531h16v16h-16zm0 0"/><path d="m104 104.019531h16v16h-16zm0 0"/><path d="m80 160.019531h16v16h-16zm0 0"/><path d="m152 168.019531h16v16h-16zm0 0"/><path d="m216 208.019531h16v16h-16zm0 0"/><path d="m272 160.019531h16v16h-16zm0 0"/><path d="m288 200.019531h16v16h-16zm0 0"/><path d="m56 208.019531h16v16h-16zm0 0"/></svg>